<svg width="48" height="48" viewBox="0 0 48 48" fill="none" xmlns="http://www.w3.org/2000/svg">
    <g clip-path="url(#clip0_225_8204)">
        <path fill-rule="evenodd" clip-rule="evenodd" d="M47.2824 34.0976H46.0589C45.5005 34.0976 45.2346 33.9162 45.1814 33.5021V13.5381C45.1814 13.3311 45.1014 13.1497 44.9418 13.0202C44.7822 12.8907 44.5694 12.8132 44.3567 12.8132H41.4845C41.2453 12.8132 41.0857 12.8907 40.9525 13.0202C40.8193 13.1497 40.7661 13.3567 40.7661 13.5381C40.7661 13.7711 40.8193 13.9265 40.9525 14.056C41.0857 14.1855 41.2981 14.2374 41.4845 14.2374H43.5323V33.5537C43.5323 34.8744 44.3834 35.5218 46.0585 35.5218H47.282C47.5212 35.5218 47.6808 35.4699 47.814 35.3404C47.9468 35.2109 48 35.0295 48 34.8225C48 34.6155 47.9468 34.4341 47.814 34.3046C47.6808 34.1751 47.468 34.0972 47.282 34.0972L47.2824 34.0976ZM10.6908 33.7611C10.6112 33.6316 10.4517 33.5537 10.2389 33.5021C10.0261 33.4502 9.84009 33.4762 9.65372 33.6836C8.66978 34.253 7.68585 34.5124 6.70191 34.5124C5.71798 34.5124 5.05322 34.3309 4.68085 33.9685C4.30848 33.606 4.12248 32.9846 4.12248 32.1558V25.6824H9.36095C9.60015 25.6824 9.75974 25.6305 9.89291 25.501C10.0257 25.3715 10.0789 25.1901 10.0789 24.9831C10.0789 24.7761 10.0257 24.5947 9.89291 24.4652C9.76011 24.3357 9.54733 24.2578 9.36095 24.2578H4.12211V19.9076C4.12211 19.6746 4.0425 19.5192 3.88291 19.3897C3.72333 19.2602 3.51054 19.2083 3.29776 19.2083C3.08498 19.2083 2.8722 19.2602 2.71261 19.3897C2.55302 19.5192 2.47341 19.7262 2.47341 19.9076V24.2578H0.717956C0.478761 24.2578 0.319174 24.3357 0.185999 24.4652C0.0531957 24.5947 0 24.8017 0 24.9831C0 25.2161 0.0531957 25.3715 0.185999 25.501C0.318802 25.6305 0.531585 25.6824 0.717956 25.6824H2.44663V32.1558C2.44663 33.4762 2.7658 34.4344 3.37737 35.0039C3.98893 35.5734 5.02606 35.8583 6.46235 35.8583C7.89863 35.8583 9.22815 35.4958 10.4781 34.7965C10.6908 34.6411 10.7972 34.4081 10.7972 34.1232C10.7972 33.9937 10.7705 33.8902 10.6908 33.7607V33.7611ZM12.4459 29.8772C12.4459 31.5864 12.9779 33.0102 14.0946 34.1495C15.185 35.2629 16.6476 35.8327 18.3763 35.8327C20.105 35.8327 21.5409 35.2632 22.658 34.1495C23.7483 33.0622 24.3067 31.6379 24.3067 29.8772C24.3067 28.1165 23.7748 26.7442 22.658 25.6049C21.5677 24.4916 20.1582 23.9217 18.4031 23.9217C16.648 23.9217 15.2385 24.4656 14.1214 25.6049C13.0043 26.7182 12.4459 28.1425 12.4459 29.8772ZM21.5145 33.1657C20.6901 33.9941 19.6794 34.4344 18.4031 34.4344C17.1268 34.4344 16.1161 34.02 15.2917 33.1657C14.4938 32.3113 14.095 31.2235 14.095 29.8772C14.095 28.5309 14.4674 27.4431 15.2917 26.5888C16.1161 25.7344 17.1268 25.294 18.4031 25.294C19.6794 25.294 20.7166 25.734 21.5145 26.5888C22.3124 27.4176 22.7112 28.5309 22.7112 29.8772C22.7112 31.2235 22.3124 32.3372 21.5145 33.1657ZM30.1568 26.3814C31.2471 24.7501 32.683 23.9213 34.4649 23.9213C36.2467 23.9213 37.6294 24.4908 38.5602 25.6045C39.4909 26.7438 39.9697 28.1421 39.9697 29.8509C39.9697 31.5596 39.4909 33.0098 38.5338 34.1232C37.5762 35.2625 36.2467 35.8323 34.5181 35.8323C32.7894 35.8323 31.3799 35.2629 30.2896 34.0976V41.7622C30.2896 41.9436 30.2096 42.1506 30.0504 42.2801C29.8908 42.4096 29.678 42.4615 29.4652 42.4615C29.2524 42.4615 29.0396 42.4096 28.8801 42.2801C28.7205 42.1506 28.6409 41.9952 28.6409 41.7622V26.2003C28.6409 25.8119 28.4545 25.6309 28.0557 25.6309H26.593C26.3802 25.6309 26.1939 25.5789 26.0611 25.4495C25.9279 25.32 25.8747 25.1645 25.8747 24.9316C25.8747 24.7501 25.9279 24.5431 26.0611 24.4137C26.1939 24.2842 26.3534 24.2066 26.593 24.2066H28.2685C29.5716 24.2066 30.2099 24.9056 30.1568 26.3817V26.3814ZM30.2896 32.6218C31.6194 33.8386 32.949 34.4344 34.2785 34.4344C35.608 34.4344 36.5923 33.9941 37.2839 33.1657C37.9754 32.3369 38.3474 31.1976 38.3474 29.7993C38.3474 28.401 38.0282 27.3137 37.3103 26.5109C36.5923 25.708 35.688 25.294 34.4913 25.294C32.7094 25.294 31.3267 26.2519 30.2896 28.1681V32.6218Z" fill="#282A2C"/>
        <path fill-rule="evenodd" clip-rule="evenodd" d="M24.5505 14.9208C26.2308 14.378 30.1089 12.8358 31.0448 9.94025C32.2486 6.21552 31.3659 5.53846 31.3659 5.53846C31.3659 5.53846 30.0014 6.68445 28.9315 7.02316C27.9245 7.42531 23.8764 9.23537 23.7648 14.5613L21.0265 16.7776C20.9146 16.736 20.7944 16.713 20.6702 16.713C20.1085 16.713 19.6267 17.1556 19.6267 17.7288C19.6267 17.764 19.6286 17.7985 19.6323 17.833L16.3546 20.0427C16.1727 19.898 15.9413 19.8126 15.6943 19.8126C15.3759 19.8126 15.0835 19.9547 14.8897 20.1825L10.5276 18.6492C10.5053 18.0961 10.0589 17.6516 9.4853 17.6769C8.92359 17.6769 8.44185 18.1198 8.44185 18.6926C8.44185 19.2654 8.8968 19.7084 9.4853 19.7084C9.78699 19.7084 10.0652 19.5808 10.2587 19.3741L14.6553 20.9197C14.7026 21.4264 15.1389 21.8442 15.6943 21.8442C16.2497 21.8442 16.7378 21.4012 16.7378 20.8284C16.7378 20.7921 16.7359 20.7564 16.7322 20.7212L20.0076 18.5134C20.1862 18.6574 20.4157 18.7449 20.6702 18.7449C21.0671 18.7449 21.4242 18.5238 21.5994 18.1918L26.0556 18.2812C30.1877 22.9627 35.1219 21.596 36.2658 21.1152C37.4696 20.6722 39.5029 20.6722 39.5029 20.6722C39.5029 20.6722 39.7704 19.5003 35.9184 17.1296C32.8951 15.2899 28.3229 16.7872 26.4949 17.5166L21.6612 17.4198C21.647 17.379 21.6303 17.3389 21.6109 17.2999L24.5505 14.9211V14.9208Z" fill="#0DC8D4"/>
    </g>
    <defs>
        <clipPath id="clip0_225_8204">
            <rect width="48" height="48" fill="white"/>
        </clipPath>
    </defs>
</svg>
