<svg width="24" height="24" viewBox="0 0 24 24" fill="none" xmlns="http://www.w3.org/2000/svg">
<path d="M18.91 5.6924C18.91 5.6924 22 9.27115 22 15.7178V17.0695C22 17.0695 18.0975 19.6124 16.9083 19.6124L15.7546 17.9349C16.4717 17.6137 17.4496 17.0562 17.4496 17.0562L17.0921 16.7795C17.0921 16.7795 14.8058 17.8387 12 17.8387C9.19417 17.8387 6.90792 16.7795 6.90792 16.7795L6.55042 17.0562C6.55042 17.0562 7.52833 17.6137 8.24542 17.9349L7.09167 19.6124C5.9025 19.6124 2 17.0695 2 17.0695V15.7178C2 9.27115 5.09 5.6924 5.09 5.6924C5.09 5.6924 7.20375 4.66907 9.15542 4.3999L9.76125 5.54782C9.76125 5.54782 10.7238 5.3249 12 5.3249C13.2762 5.3249 14.2388 5.54782 14.2388 5.54782L14.8442 4.3999C16.7962 4.66907 18.91 5.6924 18.91 5.6924ZM8.67042 14.7757C9.65375 14.7757 10.4513 13.8803 10.4513 12.7753C10.4513 11.6707 9.65417 10.7749 8.67042 10.7749C7.68667 10.7749 6.88958 11.6703 6.88958 12.7753C6.88958 13.8803 7.68667 14.7757 8.67042 14.7757ZM15.3296 14.7757C16.3129 14.7757 17.1104 13.8803 17.1104 12.7753C17.1104 11.6707 16.3129 10.7749 15.3296 10.7749C14.3463 10.7749 13.5487 11.6703 13.5487 12.7753C13.5487 13.8803 14.3463 14.7757 15.3296 14.7757Z" fill="#858E8E"/>
</svg>
