<svg width="22" height="22" viewBox="0 0 22 22" fill="none" xmlns="http://www.w3.org/2000/svg">
<path fill-rule="evenodd" clip-rule="evenodd" d="M10.9991 0C4.92491 0 0 4.92491 0 10.9991C0 15.8584 3.15092 19.982 7.52215 21.4354C8.07219 21.5374 8.27436 21.1968 8.27436 20.9054C8.27436 20.6431 8.26343 19.7761 8.25979 18.8582C5.19993 19.523 4.55518 17.5614 4.55518 17.5614C4.05431 16.2901 3.33488 15.9513 3.33488 15.9513C2.33678 15.2683 3.40955 15.2829 3.40955 15.2829C4.51329 15.3612 5.09612 16.4158 5.09612 16.4158C6.07782 18.0969 7.66967 17.6106 8.29622 17.3301C8.39457 16.6198 8.68052 16.1335 8.99379 15.8584C6.55137 15.5798 3.98328 14.6363 3.98328 10.4235C3.98328 9.22328 4.41311 8.24158 5.11615 7.47115C5.00141 7.1943 4.62621 6.076 5.22179 4.56064C5.22179 4.56064 6.14521 4.26558 8.24704 5.68805C9.12493 5.44399 10.0647 5.32196 11.0009 5.31832C11.9353 5.32196 12.8769 5.44399 13.7566 5.68805C15.8566 4.26558 16.7782 4.56064 16.7782 4.56064C17.3774 6.076 17.0004 7.1943 16.8857 7.47115C17.5905 8.24158 18.0167 9.22328 18.0167 10.4235C18.0167 14.6472 15.4432 15.5779 12.9953 15.8511C13.3905 16.1917 13.742 16.862 13.742 17.8874C13.742 19.3591 13.7293 20.5429 13.7293 20.9054C13.7293 21.1986 13.9278 21.541 14.4851 21.4336C18.8527 19.9783 22 15.8566 22 10.9991C21.9982 4.92491 17.0733 0 10.9991 0Z" fill="#535757"/>
</svg>
