<svg width="21" height="20" viewBox="0 0 21 20" fill="none" xmlns="http://www.w3.org/2000/svg">
<path d="M5.80295 0C2.60279 0 0 2.60279 0 5.80295V14.1971C0 17.3972 2.60279 20 5.80295 20H14.2475C17.4476 20 20.0504 17.3972 20.0504 14.1971V5.80295C20.0504 2.60279 17.4476 0 14.2475 0H5.80295ZM5.80295 1.71839H14.2475C16.5244 1.71839 18.332 3.52599 18.332 5.80295V14.1971C18.332 16.474 16.5244 18.2816 14.2475 18.2816H5.80295C3.52599 18.2816 1.71838 16.474 1.71838 14.1971V5.80295C1.72226 3.52599 3.52599 1.71839 5.80295 1.71839ZM15.4073 3.44065C14.744 3.44065 14.2048 3.97983 14.2048 4.64313C14.2048 5.30644 14.744 5.84562 15.4073 5.84562C16.0706 5.84562 16.6098 5.30644 16.6098 4.64313C16.6098 3.97595 16.0706 3.44065 15.4073 3.44065ZM10.0272 4.8526C7.19162 4.8526 4.87587 7.16835 4.87587 10.0039C4.87587 12.8394 7.19162 15.1552 10.0272 15.1552C12.8627 15.1552 15.1784 12.8394 15.1784 10.0039C15.1784 7.16835 12.8588 4.8526 10.0272 4.8526ZM10.0272 6.57099C11.9317 6.57099 13.46 8.09542 13.46 10C13.46 11.9046 11.9317 13.429 10.0272 13.429C8.12257 13.429 6.59814 11.9046 6.59814 10C6.59426 8.09542 8.12257 6.57099 10.0272 6.57099Z" fill="#535757"/>
</svg>
