<svg width="18" height="16" viewBox="0 0 18 16" fill="none" xmlns="http://www.w3.org/2000/svg">
<path fill-rule="evenodd" clip-rule="evenodd" d="M4.46485 15.9387H0.904094V5.2259H4.46485V15.9387ZM2.68447 3.76375H2.66095C1.46649 3.76375 0.692261 2.94084 0.692261 1.91227C0.692261 0.861119 1.48911 0.0615234 2.70779 0.0615234C3.92672 0.0615234 4.67579 0.861119 4.6991 1.91227C4.6991 2.94084 3.92672 3.76375 2.68447 3.76375ZM17.3076 15.9387H13.7459V10.2073C13.7459 8.76777 13.2313 7.78515 11.9422 7.78515C10.9578 7.78515 10.3728 8.44675 10.115 9.08763C10.0214 9.31656 9.99688 9.63478 9.99688 9.9558V15.9387H6.43449C6.43449 15.9387 6.48222 6.23095 6.43449 5.22595H9.99688V6.74397C10.4702 6.01569 11.3148 4.97446 13.2069 4.97446C15.5508 4.97446 17.3076 6.50518 17.3076 9.79545V15.9387Z" fill="#535757"/>
</svg>
