<svg width="48" height="38" viewBox="0 0 48 38" fill="none" xmlns="http://www.w3.org/2000/svg">
    <path fill-rule="evenodd" clip-rule="evenodd"
        d="M47.2824 29.0976H46.0589C45.5005 29.0976 45.2346 28.9162 45.1814 28.5021V8.5381C45.1814 8.33109 45.1014 8.14967 44.9418 8.0202C44.7822 7.89072 44.5694 7.81319 44.3567 7.81319H41.4845C41.2453 7.81319 41.0857 7.89072 40.9525 8.0202C40.8193 8.14967 40.7661 8.35669 40.7661 8.5381C40.7661 8.77108 40.8193 8.92653 40.9525 9.056C41.0857 9.18548 41.2981 9.23741 41.4845 9.23741H43.5323V28.5537C43.5323 29.8744 44.3834 30.5218 46.0585 30.5218H47.282C47.5212 30.5218 47.6808 30.4699 47.814 30.3404C47.9468 30.2109 48 30.0295 48 29.8225C48 29.6155 47.9468 29.4341 47.814 29.3046C47.6808 29.1751 47.468 29.0972 47.282 29.0972L47.2824 29.0976ZM10.6908 28.7611C10.6112 28.6316 10.4517 28.5537 10.2389 28.5021C10.0261 28.4502 9.84009 28.4762 9.65372 28.6836C8.66978 29.253 7.68585 29.5124 6.70191 29.5124C5.71798 29.5124 5.05322 29.3309 4.68085 28.9685C4.30848 28.606 4.12248 27.9846 4.12248 27.1558V20.6824H9.36095C9.60015 20.6824 9.75974 20.6305 9.89291 20.501C10.0257 20.3715 10.0789 20.1901 10.0789 19.9831C10.0789 19.7761 10.0257 19.5947 9.89291 19.4652C9.76011 19.3357 9.54733 19.2578 9.36095 19.2578H4.12211V14.9076C4.12211 14.6746 4.0425 14.5192 3.88291 14.3897C3.72333 14.2602 3.51054 14.2083 3.29776 14.2083C3.08498 14.2083 2.8722 14.2602 2.71261 14.3897C2.55302 14.5192 2.47341 14.7262 2.47341 14.9076V19.2578H0.717956C0.478761 19.2578 0.319174 19.3357 0.185999 19.4652C0.0531957 19.5947 0 19.8017 0 19.9831C0 20.2161 0.0531957 20.3715 0.185999 20.501C0.318802 20.6305 0.531585 20.6824 0.717956 20.6824H2.44663V27.1558C2.44663 28.4762 2.7658 29.4344 3.37737 30.0039C3.98893 30.5734 5.02606 30.8583 6.46235 30.8583C7.89863 30.8583 9.22815 30.4958 10.4781 29.7965C10.6908 29.6411 10.7972 29.4081 10.7972 29.1232C10.7972 28.9937 10.7705 28.8902 10.6908 28.7607V28.7611ZM12.4459 24.8772C12.4459 26.5864 12.9779 28.0102 14.0946 29.1495C15.185 30.2629 16.6476 30.8327 18.3763 30.8327C20.105 30.8327 21.5409 30.2632 22.658 29.1495C23.7483 28.0622 24.3067 26.6379 24.3067 24.8772C24.3067 23.1165 23.7748 21.7442 22.658 20.6049C21.5677 19.4916 20.1582 18.9217 18.4031 18.9217C16.648 18.9217 15.2385 19.4656 14.1214 20.6049C13.0043 21.7182 12.4459 23.1425 12.4459 24.8772ZM21.5145 28.1657C20.6901 28.9941 19.6794 29.4344 18.4031 29.4344C17.1268 29.4344 16.1161 29.02 15.2917 28.1657C14.4938 27.3113 14.095 26.2235 14.095 24.8772C14.095 23.5309 14.4674 22.4431 15.2917 21.5888C16.1161 20.7344 17.1268 20.294 18.4031 20.294C19.6794 20.294 20.7166 20.734 21.5145 21.5888C22.3124 22.4176 22.7112 23.5309 22.7112 24.8772C22.7112 26.2235 22.3124 27.3372 21.5145 28.1657ZM30.1568 21.3814C31.2471 19.7501 32.683 18.9213 34.4649 18.9213C36.2467 18.9213 37.6294 19.4908 38.5602 20.6045C39.4909 21.7438 39.9697 23.1421 39.9697 24.8509C39.9697 26.5596 39.4909 28.0098 38.5338 29.1232C37.5762 30.2625 36.2467 30.8323 34.5181 30.8323C32.7894 30.8323 31.3799 30.2629 30.2896 29.0976V36.7622C30.2896 36.9436 30.2096 37.1506 30.0504 37.2801C29.8908 37.4096 29.678 37.4615 29.4652 37.4615C29.2524 37.4615 29.0396 37.4096 28.8801 37.2801C28.7205 37.1506 28.6409 36.9952 28.6409 36.7622V21.2003C28.6409 20.8119 28.4545 20.6309 28.0557 20.6309H26.593C26.3802 20.6309 26.1939 20.5789 26.0611 20.4495C25.9279 20.32 25.8747 20.1645 25.8747 19.9316C25.8747 19.7501 25.9279 19.5431 26.0611 19.4137C26.1939 19.2842 26.3534 19.2066 26.593 19.2066H28.2685C29.5716 19.2066 30.2099 19.9056 30.1568 21.3817V21.3814ZM30.2896 27.6218C31.6194 28.8386 32.949 29.4344 34.2785 29.4344C35.608 29.4344 36.5923 28.9941 37.2839 28.1657C37.9754 27.3369 38.3474 26.1976 38.3474 24.7993C38.3474 23.401 38.0282 22.3137 37.3103 21.5109C36.5923 20.708 35.688 20.294 34.4913 20.294C32.7094 20.294 31.3267 21.2519 30.2896 23.1681V27.6218Z"
        fill="#282A2C" />
    <path fill-rule="evenodd" clip-rule="evenodd"
        d="M24.5505 9.92078C26.2308 9.37802 30.1089 7.83582 31.0448 4.94025C32.2486 1.21552 31.3659 0.53846 31.3659 0.53846C31.3659 0.53846 30.0014 1.68445 28.9315 2.02316C27.9245 2.42531 23.8764 4.23537 23.7648 9.56129L21.0265 11.7776C20.9146 11.736 20.7944 11.713 20.6702 11.713C20.1085 11.713 19.6267 12.1556 19.6267 12.7288C19.6267 12.764 19.6286 12.7985 19.6323 12.833L16.3546 15.0427C16.1727 14.898 15.9413 14.8126 15.6943 14.8126C15.3759 14.8126 15.0835 14.9547 14.8897 15.1825L10.5276 13.6492C10.5053 13.0961 10.0589 12.6516 9.4853 12.6769C8.92359 12.6769 8.44185 13.1198 8.44185 13.6926C8.44185 14.2654 8.8968 14.7084 9.4853 14.7084C9.78699 14.7084 10.0652 14.5808 10.2587 14.3741L14.6553 15.9197C14.7026 16.4264 15.1389 16.8442 15.6943 16.8442C16.2497 16.8442 16.7378 16.4012 16.7378 15.8284C16.7378 15.7921 16.7359 15.7564 16.7322 15.7212L20.0076 13.5134C20.1862 13.6574 20.4157 13.7449 20.6702 13.7449C21.0671 13.7449 21.4242 13.5238 21.5994 13.1918L26.0556 13.2812C30.1877 17.9627 35.1219 16.596 36.2658 16.1152C37.4696 15.6722 39.5029 15.6722 39.5029 15.6722C39.5029 15.6722 39.7704 14.5003 35.9184 12.1296C32.8951 10.2899 28.3229 11.7872 26.4949 12.5166L21.6612 12.4198C21.647 12.379 21.6303 12.3389 21.6109 12.2999L24.5505 9.92115V9.92078Z"
        fill="#0DC8D4" />
</svg>
