<svg width="22" height="12" viewBox="0 0 22 12" fill="none" xmlns="http://www.w3.org/2000/svg">
<path fill-rule="evenodd" clip-rule="evenodd" d="M6.59401 0.338867C9.72083 0.338867 12.2553 2.8739 12.2553 6.00012C12.2553 9.12634 9.72083 11.6614 6.59401 11.6614C3.46779 11.6614 0.93335 9.12634 0.93335 6.00012C0.93335 2.8739 3.46779 0.338867 6.59401 0.338867ZM15.6521 0.786225C17.2343 0.786225 18.5165 3.12047 18.5165 6.00012C18.5165 8.87977 17.2343 11.214 15.6521 11.214C14.0699 11.214 12.7878 8.87977 12.7878 6.00012C12.7878 3.12047 14.0699 0.786225 15.6521 0.786225ZM20.0694 1.233C20.62 1.233 21.0668 3.36705 21.0668 6.00012C21.0668 8.63319 20.62 10.7672 20.0694 10.7672C19.5181 10.7672 19.0713 8.63319 19.0713 6.00012C19.0713 3.36705 19.5181 1.233 20.0694 1.233Z" fill="#535757"/>
</svg>
