<svg width="99" height="32" viewBox="0 0 99 32" fill="none" xmlns="http://www.w3.org/2000/svg">
<path fill-rule="evenodd" clip-rule="evenodd" d="M77.2506 13.4661C79.679 12.6871 85.2836 10.4736 86.6362 6.31772C88.376 0.971752 87.1002 0 87.1002 0C87.1002 0 85.1282 1.64479 83.582 2.13093C82.1267 2.70813 76.2764 5.30603 76.1151 12.9501L72.1577 16.1311C71.9959 16.0714 71.8223 16.0384 71.6427 16.0384C70.8309 16.0384 70.1347 16.6737 70.1347 17.4963C70.1347 17.5469 70.1374 17.5964 70.1427 17.646L65.4058 20.8173C65.1429 20.6097 64.8085 20.4872 64.4516 20.4872C63.9914 20.4872 63.5688 20.6911 63.2887 21.0181L56.9846 18.8174C56.9524 18.0235 56.3072 17.3856 55.4782 17.4218C54.6664 17.4218 53.9702 18.0576 53.9702 18.8797C53.9702 19.7018 54.6277 20.3376 55.4782 20.3376C55.9142 20.3376 56.3164 20.1544 56.5959 19.8578L62.95 22.0761C63.0183 22.8034 63.6489 23.403 64.4516 23.403C65.2542 23.403 65.9596 22.7672 65.9596 21.9451C65.9596 21.8929 65.9569 21.8418 65.9515 21.7912L70.6852 18.6225C70.9433 18.8291 71.275 18.9548 71.6427 18.9548C72.2163 18.9548 72.7324 18.6374 72.9857 18.1608L79.4257 18.2892C85.3976 25.0084 92.5285 23.0468 94.1817 22.3567C95.9214 21.7209 98.86 21.7209 98.86 21.7209C98.86 21.7209 99.2465 20.0389 93.6795 16.6364C89.3103 13.9959 82.7025 16.1449 80.0607 17.1918L73.0749 17.0528C73.0545 16.9942 73.0303 16.9367 73.0023 16.8808L77.2506 13.4666V13.4661Z" fill="#9EA1A1"/>
<path fill-rule="evenodd" clip-rule="evenodd" d="M48.9291 23.345H47.663C47.0851 23.345 46.8099 23.1572 46.7549 22.7288V2.0695C46.7549 1.85527 46.6721 1.66754 46.5069 1.53356C46.3418 1.39957 46.1216 1.31934 45.9014 1.31934H42.9292C42.6817 1.31934 42.5165 1.39957 42.3787 1.53356C42.2409 1.66754 42.1858 1.88176 42.1858 2.0695C42.1858 2.31059 42.2409 2.47145 42.3787 2.60543C42.5165 2.73942 42.7363 2.79316 42.9292 2.79316H45.0484V22.7822C45.0484 24.1489 45.9291 24.8188 47.6626 24.8188H48.9287C49.1762 24.8188 49.3414 24.7651 49.4792 24.6311C49.6166 24.4971 49.6716 24.3094 49.6716 24.0951C49.6716 23.8809 49.6166 23.6932 49.4792 23.5592C49.3414 23.4252 49.1212 23.3446 48.9287 23.3446L48.9291 23.345ZM11.0632 22.9968C10.9808 22.8628 10.8156 22.7822 10.5954 22.7288C10.3753 22.6751 10.1828 22.7019 9.98992 22.9165C8.97171 23.5058 7.95351 23.7742 6.93531 23.7742C5.91711 23.7742 5.2292 23.5865 4.84386 23.2114C4.45853 22.8363 4.26605 22.1933 4.26605 21.3356V14.6368H9.68696C9.93448 14.6368 10.0996 14.583 10.2374 14.449C10.3749 14.3151 10.4299 14.1273 10.4299 13.9131C10.4299 13.6989 10.3749 13.5111 10.2374 13.3772C10.1 13.2432 9.87982 13.1626 9.68696 13.1626H4.26566V8.66083C4.26566 8.41974 4.18328 8.25888 4.01814 8.1249C3.85299 7.99091 3.6328 7.93716 3.41261 7.93716C3.19242 7.93716 2.97222 7.99091 2.80708 8.1249C2.64193 8.25888 2.55955 8.4731 2.55955 8.66083V13.1626H0.742959C0.495435 13.1626 0.33029 13.2432 0.192477 13.3772C0.0550483 13.5111 0 13.7254 0 13.9131C0 14.1542 0.0550483 14.3151 0.192477 14.449C0.329905 14.583 0.550098 14.6368 0.742959 14.6368H2.53184V21.3356C2.53184 22.7019 2.86213 23.6936 3.49499 24.2829C4.12785 24.8722 5.2011 25.167 6.6874 25.167C8.17371 25.167 9.54953 24.7919 10.843 24.0683C11.0632 23.9074 11.1733 23.6663 11.1733 23.3715C11.1733 23.2375 11.1455 23.1304 11.0632 22.9964V22.9968ZM12.8794 18.9776C12.8794 20.7463 13.4299 22.2197 14.5855 23.3987C15.7138 24.5508 17.2274 25.1405 19.0163 25.1405C20.8052 25.1405 22.2911 24.5512 23.4471 23.3987C24.5754 22.2735 25.1532 20.7997 25.1532 18.9776C25.1532 17.1556 24.6027 15.7355 23.4471 14.5565C22.3188 13.4044 20.8602 12.8147 19.044 12.8147C17.2278 12.8147 15.7692 13.3775 14.6132 14.5565C13.4572 15.7086 12.8794 17.1825 12.8794 18.9776ZM22.2638 22.3806C21.4107 23.2379 20.3648 23.6936 19.044 23.6936C17.7232 23.6936 16.6773 23.2647 15.8243 22.3806C14.9985 21.4965 14.5859 20.3708 14.5859 18.9776C14.5859 17.5844 14.9712 16.4588 15.8243 15.5747C16.6773 14.6905 17.7232 14.2348 19.044 14.2348C20.3648 14.2348 21.438 14.6901 22.2638 15.5747C23.0895 16.4323 23.5022 17.5844 23.5022 18.9776C23.5022 20.3708 23.0895 21.5233 22.2638 22.3806ZM31.207 15.3601C32.3353 13.672 33.8212 12.8143 35.6651 12.8143C37.509 12.8143 38.9399 13.4036 39.9031 14.5561C40.8662 15.7351 41.3617 17.1821 41.3617 18.9504C41.3617 20.7187 40.8662 22.2194 39.8757 23.3715C38.8849 24.5505 37.509 25.1401 35.7202 25.1401C33.9313 25.1401 32.4727 24.5508 31.3444 23.345V31.2765C31.3444 31.4643 31.2617 31.6785 31.0969 31.8125C30.9317 31.9465 30.7116 32.0002 30.4914 32.0002C30.2712 32.0002 30.051 31.9465 29.8858 31.8125C29.7207 31.6785 29.6383 31.5176 29.6383 31.2765V15.1727C29.6383 14.7708 29.4454 14.5834 29.0328 14.5834H27.5191C27.2989 14.5834 27.1061 14.5297 26.9687 14.3957C26.8308 14.2617 26.7758 14.1008 26.7758 13.8597C26.7758 13.672 26.8308 13.4578 26.9687 13.3238C27.1061 13.1898 27.2712 13.1096 27.5191 13.1096H29.253C30.6015 13.1096 31.262 13.8329 31.207 15.3604V15.3601ZM31.3444 21.8178C32.7206 23.077 34.0964 23.6936 35.4723 23.6936C36.8481 23.6936 37.8667 23.2379 38.5823 22.3806C39.2979 21.5229 39.6829 20.344 39.6829 18.897C39.6829 17.4501 39.3526 16.3248 38.6096 15.494C37.8667 14.6633 36.9309 14.2348 35.6925 14.2348C33.8485 14.2348 32.4177 15.2261 31.3444 17.209V21.8178Z" fill="#9EA1A1"/>
</svg>
