<svg width="20" height="17" viewBox="0 0 20 17" fill="none" xmlns="http://www.w3.org/2000/svg">
<path d="M19.6974 1.89294C18.9721 2.2149 18.1924 2.43212 17.3778 2.52909C18.2118 2.0287 18.8518 1.23739 19.1544 0.294802C18.3747 0.7564 17.5097 1.09387 16.5865 1.27618C15.8495 0.49263 14.7983 0 13.6385 0C11.4042 0 9.59659 1.8076 9.59659 4.04189C9.59659 4.35997 9.6315 4.66641 9.70132 4.96121C6.34212 4.79441 3.36307 3.18464 1.36928 0.737006C1.02017 1.33437 0.822342 2.0287 0.822342 2.76959C0.822342 4.17378 1.53607 5.40729 2.62219 6.13266C1.95888 6.11327 1.33825 5.93095 0.79131 5.62839C0.79131 5.64391 0.79131 5.6633 0.79131 5.67882C0.79131 7.6377 2.18386 9.27075 4.03413 9.64313C3.69666 9.73623 3.3398 9.78278 2.9713 9.78278C2.7114 9.78278 2.45927 9.7595 2.21102 9.70907C2.72692 11.315 4.21644 12.4825 5.98526 12.5175C4.60046 13.6036 2.85881 14.2475 0.965866 14.2475C0.640032 14.2475 0.318076 14.2281 0 14.1893C1.78821 15.3375 3.91389 16.0047 6.19472 16.0047C13.6307 16.0047 17.692 9.84484 17.692 4.50349C17.692 4.32894 17.6881 4.15438 17.6804 3.97983C18.4678 3.4135 19.1544 2.70365 19.6974 1.89294Z" fill="#535757"/>
</svg>
